inDegrees=yes
name=ik_orientation_Tpose_Bogen
DataType=double
version=3
OpenSimVersion=4.3-2021-08-27-4bc7ad9
endheader
time	pelvis_tilt	pelvis_list	pelvis_rotation	pelvis_tx	pelvis_ty	pelvis_tz	hip_flexion_r	hip_adduction_r	hip_rotation_r	knee_angle_r	knee_angle_r_beta	ankle_angle_r	subtalar_angle_r	mtp_angle_r	hip_flexion_l	hip_adduction_l	hip_rotation_l	knee_angle_l	knee_angle_l_beta	ankle_angle_l	subtalar_angle_l	mtp_angle_l	lumbar_extension	lumbar_bending	lumbar_rotation	arm_flex_r	arm_add_r	arm_rot_r	elbow_flex_r	pro_sup_r	wrist_flex_r	wrist_dev_r	arm_flex_l	arm_add_l	arm_rot_l	elbow_flex_l	pro_sup_l	wrist_flex_l	wrist_dev_l
7.21	-0.6369843987154946	-1.67349409330748	148.0447031545124	0	0.9399999999999999	0	44.11288739318918	-9.97878929271168	0	59.88713882085536	1.045227752022841	-4.96316687948027	0	0	44.11288739318918	-9.97878929271168	0	59.88713882085536	1.045227752022841	-4.96316687948027	0	0	2.300908640980837	-0.1992240589710867	-3.412912915413589	0	-11.90185999849595	0	75.25203901223422	45.10996226676895	0	0	16.22928026061142	49.25407323459469	-14.01351245838608	0.002483385966352666	45.10996226676895	0	0
7.22	-0.6413866077952595	-1.697919296686497	148.0532044349899	0	0.9399999999999999	0	44.13060836228399	-9.980081078038349	0	59.88897463073219	1.045259792949632	-4.965963023243057	0	0	44.13060836228399	-9.980081078038349	0	59.88897463073219	1.045259792949632	-4.965963023243057	0	0	2.316995135703269	-0.2252524402464493	-3.408254933296484	0	-11.93480509593727	0	75.24700833963902	45.10447843510813	0	0	14.1329015879414	53.67597217507651	-12.64137435396424	0.002557007716985272	45.10447843510813	0	0
7.23	-0.6406773752636995	-1.700251639780458	148.0441338299469	0	0.9399999999999999	0	44.14574554434465	-9.9812170880551	0	59.89054066932648	1.045287125479315	-4.968435054071893	0	0	44.14574554434465	-9.9812170880551	0	59.89054066932648	1.045287125479315	-4.968435054071893	0	0	2.334601278302378	-0.2182046601777942	-3.38893651642756	0	-11.96265133030343	0	75.24271119217775	45.09968274303066	0	0	11.1061257830538	56.04035709412504	-10.17626771419633	0.002653456064376928	45.09968274303066	0	0
7.24	-0.6486553421010504	-1.716276708443616	148.0537157714712	0	0.9399999999999999	0	44.15998611972001	-9.982245360247237	0	59.8920154842384	1.045312865855386	-4.970636681212603	0	0	44.15998611972001	-9.982245360247237	0	59.8920154842384	1.045312865855386	-4.970636681212603	0	0	2.330132539073802	-0.2381513498772594	-3.387478146256945	0	-11.98902873499271	0	75.23866855119637	45.09529255885374	0	0	8.028444924156748	58.61485832194935	-7.764715642220196	0.002746703117941986	45.09529255885374	0	0
7.25	-0.6669521924573883	-1.730358917409247	148.061211782825	0	0.9399999999999999	0	44.1601262024087	-9.982255707315455	0	59.89202963360724	1.045313112808459	-4.970659005625757	0	0	44.1601262024087	-9.982255707315455	0	59.89202963360724	1.045313112808459	-4.970659005625757	0	0	2.288892326023372	-0.2702907663693717	-3.451978229370142	0	-11.98928593764207	0	75.23862878432537	45.09524863308047	0	0	7.456515620192071	59.0984023624043	-8.120099411077245	0.002768094380461924	45.09524863308047	0	0
7.26	-0.6398770665034019	-1.722120265785167	148.0563212126536	0	0.9399999999999999	0	44.16104861651119	-9.982324047466362	0	59.89212246034399	1.04531473294065	-4.970806479536175	0	0	44.16104861651119	-9.982324047466362	0	59.89212246034399	1.04531473294065	-4.970806479536175	0	0	2.342532334636353	-0.2408419750669803	-3.370983181431154	0	-11.9909754881734	0	75.23836692829595	45.09495860875143	0	0	5.68205914145134	60.42676640336191	-7.537764954620364	0.002817412450504354	45.09495860875143	0	0
7.27	-0.6452733407949018	-1.737058271376955	148.0780749630907	0	0.9399999999999999	0	44.17031908967567	-9.983005233916174	0	59.89307185375988	1.045331302981654	-4.972261439329038	0	0	44.17031908967567	-9.983005233916174	0	59.89307185375988	1.045331302981654	-4.972261439329038	0	0	2.351255740602553	-0.250136176964449	-3.385942788466749	0	-12.00789254604485	0	75.23573522502281	45.0920518130798	0	0	3.741138575389657	62.70686602003694	-6.585822268976812	0.002870239354590786	45.0920518130798	0	0
7.28	-0.6411594159202847	-1.730752935629793	148.0884813803134	0	0.9399999999999999	0	44.17089157637471	-9.983046358052684	0	59.89312963426341	1.045332311441684	-4.972349049398525	0	0	44.17089157637471	-9.983046358052684	0	59.89312963426341	1.045332311441684	-4.972349049398525	0	0	2.339066217634675	-0.2294122451035777	-3.416257416324328	0	-12.00894767436873	0	75.23557270610706	45.09187572174186	0	0	3.305972862681906	63.65973594144452	-6.423716930107282	0.002878854301758184	45.09187572174186	0	0
7.29	-0.6432292651892776	-1.748067384350577	148.0919831998872	0	0.9399999999999999	0	44.17119259419251	-9.983067927352545	0	59.89316004692096	1.045332842242692	-4.972394963221871	0	0	44.17119259419251	-9.983067927352545	0	59.89316004692096	1.045332842242692	-4.972394963221871	0	0	2.333275574271226	-0.2561886856385137	-3.387855350370593	0	-12.00950297480719	0	75.23548725240281	45.09178330749469	0	0	3.120641860942258	64.82364872427992	-6.542376586510882	0.002875553739466995	45.09178330749469	0	0
7.3	-0.6565336209679246	-1.759294862295166	148.0924824930968	0	0.9399999999999999	0	44.18184006117504	-9.98381251620385	0	59.89424733037597	1.045351818918885	-4.973955306785728	0	0	44.18184006117504	-9.98381251620385	0	59.89424733037597	1.045351818918885	-4.973955306785728	0	0	2.31006699752284	-0.2801198912922082	-3.384209957089277	0	-12.02910641085922	0	75.23246462442225	45.08856161301429	0	0	1.191707413255069	67.62135234407552	-5.191439451701487	0.002913780751906479	45.08856161301429	0	0
7.31	-0.6531604736062349	-1.758675164254088	148.0944293708757	0	0.9399999999999999	0	44.18949626393976	-9.984331755824641	0	59.89502802327428	1.045365444580407	-4.975028342038133	0	0	44.18949626393976	-9.984331755824641	0	59.89502802327428	1.045365444580407	-4.975028342038133	0	0	2.324797883593144	-0.2777571422400902	-3.310687720300817	0	-12.04324837343114	0	75.23029115521558	45.08629333879173	0	0	0.7323937506395459	70.6648206754308	-5.63823771012581	0.002906167771185789	45.08629333879173	0	0
7.32	-0.6534705186723606	-1.773196403745296	148.1028903110617	0	0.9399999999999999	0	44.19508375974593	-9.984676457524712	0	59.89561514734401	1.045375691828542	-4.975723664726548	0	0	44.19508375974593	-9.984676457524712	0	59.89561514734401	1.045375691828542	-4.975723664726548	0	0	2.311641125875235	-0.2932003247789035	-3.361725640622279	0	-12.05396833292519	0	75.22870492914038	45.08475666892342	0	0	5.419160983808303	74.46775375185366	-11.86737782556517	0.002825959749445498	45.08475666892342	0	0
7.33	-0.663165400629815	-1.761809980252455	148.1123508833981	0	0.9399999999999999	0	44.20442320812053	-9.985243635573282	0	59.8965817165148	1.04539256164302	-4.976859760405257	0	0	44.20442320812053	-9.985243635573282	0	59.8965817165148	1.04539256164302	-4.976859760405257	0	0	2.300450744608719	-0.2924688616518645	-3.358436160705093	0	-12.07185506511109	0	75.22605356046462	45.08221515414758	0	0	14.40966874079847	79.09653438059097	-22.34067658042467	0.002748751942459985	45.08221515414758	0	0
7.34	-0.6820241793316577	-1.766404712756073	148.117746079328	0	0.9399999999999999	0	44.20967042603208	-9.985599092503858	0	59.89710341618309	1.045401667019938	-4.977591320927803	0	0	44.20967042603208	-9.985599092503858	0	59.89710341618309	1.045401667019938	-4.977591320927803	0	0	2.272260924022615	-0.3064752299994824	-3.34154438337406	0	-12.08146709296454	0	75.22456395916782	45.08065881415085	0	0	37.41197239488622	78.72415164279579	-47.51903857938044	0.002546991158560838	45.08065881415085	0	0
7.35	-0.6889391642874112	-1.771590394344925	148.1152333443581	0	0.9399999999999999	0	44.21000116752612	-9.985721811768	0	59.8970032982106	1.045399919631678	-4.977876383162176	0	0	44.21000116752612	-9.985721811768	0	59.8970032982106	1.045399919631678	-4.977876383162176	0	0	2.286616545063519	-0.3352816016563141	-3.34283905721678	0	-12.08025487701464	0	75.22447014888702	45.08018996854133	0	0	57.84042650432809	76.8714333843908	-70.37101753944437	0.002373239009321879	45.08018996854133	0	0
7.36	-0.6925677916826838	-1.767157203384652	148.1092640517977	0	0.9399999999999999	0	44.18721500500187	-9.984505921437378	0	59.89445432671155	1.04535543168648	-4.97552880831673	0	0	44.18721500500187	-9.984505921437378	0	59.89445432671155	1.04535543168648	-4.97552880831673	0	0	2.271991108204212	-0.5706139948249714	-3.287057328380816	0	-12.03390516530229	0	75.2309390075949	45.0857925853844	0	0	73.36590305016396	74.1387490514424	-88.32332596017685	0.002231697406662929	45.0857925853844	0	0
7.37	-0.6819204268723692	-1.778480696706909	148.1165190739498	0	0.9399999999999999	0	44.20385875849496	-9.985302266912559	0	59.89628546868398	1.04538739114297	-4.977023904725868	0	0	44.20385875849496	-9.985302266912559	0	59.89628546868398	1.04538739114297	-4.977023904725868	0	0	2.205371292825224	-2.532178888716901	-2.661366706177371	0	-12.06850905207989	0	75.22621384901228	45.08202884754772	0	0	72.20145762159635	70.52857942264795	-89.84772103267667	0.002121451061964299	45.08202884754772	0	0
7.38	-0.7120781968292511	-1.778577117518741	148.1098196695676	0	0.9399999999999999	0	44.22172656750342	-9.986177692979265	0	59.89823202440891	1.045421364949444	-4.978662093125411	0	0	44.22172656750342	-9.986177692979265	0	59.89823202440891	1.045421364949444	-4.978662093125411	0	0	2.092039328706568	-4.738294708334329	-1.739615389716247	0	-12.10506531738178	0	75.22114121721542	45.07789525133551	0	0	69.82657850040825	67.47071442500474	-89.93376804577487	0.002038942668947588	45.07789525133551	0	0
7.39	-0.7227208096474711	-1.77792023375862	148.1198106302019	0	0.9399999999999999	0	44.23820749430366	-9.986954657277526	0	59.90003610505207	1.045452852096639	-4.980098253024098	0	0	44.23820749430366	-9.986954657277526	0	59.90003610505207	1.045452852096639	-4.980098253024098	0	0	2.024904013845071	-7.146740574301596	-0.5675704696211995	0	-12.13913309094666	0	75.21646229730432	45.07419127996371	0	0	67.62702105100034	64.66428291471368	-89.9621951601758	0.001967183441193483	45.07419127996371	0	0
7.4	-0.7216359619608088	-1.777816505272414	148.1002528077719	0	0.9399999999999999	0	44.25507917950913	-9.987656613552463	0	59.90194987250099	1.04548625363974	-4.98136045731854	0	0	44.25507917950913	-9.987656613552463	0	59.90194987250099	1.04548625363974	-4.98136045731854	0	0	2.083887616549179	-9.246238430375227	0.9553666028157857	0	-12.17567105025111	0	75.21167235407221	45.07075899210603	0	0	64.26892079345608	61.24451291760808	-89.97496738971482	0.001897971708275756	45.07075899210603	0	0
7.41	-0.7408922599891204	-1.771568474269945	148.1049629402896	0	0.9399999999999999	0	44.27236098885265	-9.988364867954225	0	59.9039094166411	1.045520454136823	-4.982630443876404	0	0	44.27236098885265	-9.988364867954225	0	59.9039094166411	1.045520454136823	-4.982630443876404	0	0	2.164557594542257	-10.78920043273352	2.764994369999696	0	-12.21331154592786	0	75.20676596959792	45.06728653172885	0	0	59.66819566130687	59.10210457865418	-89.98085048541006	0.001882821658767733	45.06728653172885	0	0
7.42	-0.7518493058237472	-1.775957801506179	148.1074565325209	0	0.9399999999999999	0	44.28625342236445	-9.988953755040503	0	59.90545124375508	1.045547364096458	-4.983682796762925	0	0	44.28625342236445	-9.988953755040503	0	59.90545124375508	1.045547364096458	-4.983682796762925	0	0	2.308859518243501	-11.83179185061225	4.233392552854887	0	-12.2429086309162	0	75.20282187585337	45.06440501242962	0	0	56.64920266290627	57.060709908141	-89.98405567536065	0.001855414124429601	45.06440501242962	0	0
